<svg xmlns="http://www.w3.org/2000/svg" width="512" height="512" viewBox="0 0 512 512">
  <defs>
    <linearGradient id="bg" x1="0%" y1="0%" x2="100%" y2="100%">
      <stop offset="0%" style="stop-color:#667eea"/>
      <stop offset="100%" style="stop-color:#764ba2"/>
    </linearGradient>
  </defs>
  <rect width="512" height="512" rx="100" fill="url(#bg)"/>
  
  <!-- Block 1 (Red) -->
  <rect x="80" y="320" width="60" height="60" rx="8" fill="#ff4d4d" stroke="#cc0000" stroke-width="4"/>
  
  <!-- Block 2 (Orange) -->
  <rect x="160" y="290" width="60" height="60" rx="8" fill="#ffaf40" stroke="#e67e22" stroke-width="4"/>
  <rect x="160" y="350" width="60" height="60" rx="8" fill="#ffaf40" stroke="#e67e22" stroke-width="4"/>
  
  <!-- Block 3 (Yellow) -->
  <rect x="240" y="260" width="60" height="60" rx="8" fill="#fffa65" stroke="#f1c40f" stroke-width="4"/>
  <rect x="240" y="320" width="60" height="60" rx="8" fill="#fffa65" stroke="#f1c40f" stroke-width="4"/>
  <rect x="300" y="320" width="60" height="60" rx="8" fill="#fffa65" stroke="#f1c40f" stroke-width="4"/>
  
  <!-- Block 4 (Green) -->
  <rect x="380" y="230" width="60" height="60" rx="8" fill="#32ff7e" stroke="#2ecc71" stroke-width="4"/>
  <rect x="380" y="290" width="60" height="60" rx="8" fill="#32ff7e" stroke="#2ecc71" stroke-width="4"/>
  <rect x="380" y="350" width="60" height="60" rx="8" fill="#32ff7e" stroke="#2ecc71" stroke-width="4"/>
  <rect x="440" y="290" width="1" height="1" fill="none"/>
  
  <!-- Face on Block 1 -->
  <circle cx="95" cy="335" r="6" fill="white" stroke="black" stroke-width="2"/>
  <circle cx="125" cy="335" r="6" fill="white" stroke="black" stroke-width="2"/>
  <circle cx="97" cy="337" r="2" fill="black"/>
  <circle cx="127" cy="337" r="2" fill="black"/>
  <path d="M100 355 Q110 365 120 355" stroke="black" stroke-width="2" fill="none"/>
  
  <!-- Title -->
  <text x="256" y="150" text-anchor="middle" font-family="Arial Rounded MT Bold, Arial" font-size="48" font-weight="bold" fill="white">NUMBERBLOCKS</text>
  <text x="256" y="200" text-anchor="middle" font-family="Arial" font-size="32" fill="rgba(255,255,255,0.8)">GAMES</text>
</svg>
